<Notes>
  	<MidiNoteEvent Time="0" Duration="0.25" Velocity="100" VelocityDeviation="0" OffVelocity="64" Probability="1" IsEnabled="true" NoteId="1" />
														<MidiNoteEvent Time="0.5" Duration="0.25" Velocity="100" VelocityDeviation="0" OffVelocity="64" Probability="1" IsEnabled="true" NoteId="2" />
														<MidiNoteEvent Time="1.75" Duration="0.25" Velocity="100" VelocityDeviation="0" OffVelocity="64" Probability="1" IsEnabled="true" NoteId="3" />
														<MidiNoteEvent Time="2.5" Duration="0.25" Velocity="100" VelocityDeviation="0" OffVelocity="64" Probability="1" IsEnabled="true" NoteId="4" />
														<MidiNoteEvent Time="4" Duration="0.25" Velocity="100" VelocityDeviation="0" OffVelocity="64" Probability="1" IsEnabled="true" NoteId="5" />
														<MidiNoteEvent Time="4.5" Duration="0.25" Velocity="100" VelocityDeviation="0" OffVelocity="64" Probability="1" IsEnabled="true" NoteId="6" />
														<MidiNoteEvent Time="5.75" Duration="0.25" Velocity="100" VelocityDeviation="0" OffVelocity="64" Probability="1" IsEnabled="true" NoteId="7" />
														<MidiNoteEvent Time="6.5" Duration="0.25" Velocity="100" VelocityDeviation="0" OffVelocity="64" Probability="1" IsEnabled="true" NoteId="8" />
														<MidiNoteEvent Time="8" Duration="0.25" Velocity="100" VelocityDeviation="0" OffVelocity="64" Probability="1" IsEnabled="true" NoteId="9" />
														<MidiNoteEvent Time="8.5" Duration="0.25" Velocity="100" VelocityDeviation="0" OffVelocity="64" Probability="1" IsEnabled="true" NoteId="10" />
														<MidiNoteEvent Time="9.75" Duration="0.25" Velocity="100" VelocityDeviation="0" OffVelocity="64" Probability="1" IsEnabled="true" NoteId="11" />
														<MidiNoteEvent Time="10.5" Duration="0.25" Velocity="100" VelocityDeviation="0" OffVelocity="64" Probability="1" IsEnabled="true" NoteId="12" />
														<MidiNoteEvent Time="12" Duration="0.25" Velocity="100" VelocityDeviation="0" OffVelocity="64" Probability="1" IsEnabled="true" NoteId="13" />
														<MidiNoteEvent Time="12.5" Duration="0.25" Velocity="100" VelocityDeviation="0" OffVelocity="64" Probability="1" IsEnabled="true" NoteId="14" />
														<MidiNoteEvent Time="13.75" Duration="0.25" Velocity="100" VelocityDeviation="0" OffVelocity="64" Probability="1" IsEnabled="true" NoteId="15" />
														<MidiNoteEvent Time="14.5" Duration="0.25" Velocity="100" VelocityDeviation="0" OffVelocity="64" Probability="1" IsEnabled="true" NoteId="16" />
														<MidiNoteEvent Time="16" Duration="0.25" Velocity="100" VelocityDeviation="0" OffVelocity="64" Probability="1" IsEnabled="true" NoteId="17" />
														<MidiNoteEvent Time="16.5" Duration="0.25" Velocity="100" VelocityDeviation="0" OffVelocity="64" Probability="1" IsEnabled="true" NoteId="18" />
														<MidiNoteEvent Time="17.75" Duration="0.25" Velocity="100" VelocityDeviation="0" OffVelocity="64" Probability="1" IsEnabled="true" NoteId="19" />
														<MidiNoteEvent Time="18.5" Duration="0.25" Velocity="100" VelocityDeviation="0" OffVelocity="64" Probability="1" IsEnabled="true" NoteId="20" />
														<MidiNoteEvent Time="20" Duration="0.25" Velocity="100" VelocityDeviation="0" OffVelocity="64" Probability="1" IsEnabled="true" NoteId="21" />
														<MidiNoteEvent Time="20.5" Duration="0.25" Velocity="100" VelocityDeviation="0" OffVelocity="64" Probability="1" IsEnabled="true" NoteId="22" />
														<MidiNoteEvent Time="21.75" Duration="0.25" Velocity="100" VelocityDeviation="0" OffVelocity="64" Probability="1" IsEnabled="true" NoteId="23" />
														<MidiNoteEvent Time="22.5" Duration="0.25" Velocity="100" VelocityDeviation="0" OffVelocity="64" Probability="1" IsEnabled="true" NoteId="24" />
														<MidiNoteEvent Time="24" Duration="0.25" Velocity="100" VelocityDeviation="0" OffVelocity="64" Probability="1" IsEnabled="true" NoteId="25" />
														<MidiNoteEvent Time="24.5" Duration="0.25" Velocity="100" VelocityDeviation="0" OffVelocity="64" Probability="1" IsEnabled="true" NoteId="26" />
														<MidiNoteEvent Time="25.75" Duration="0.25" Velocity="100" VelocityDeviation="0" OffVelocity="64" Probability="1" IsEnabled="true" NoteId="27" />
														<MidiNoteEvent Time="26.5" Duration="0.25" Velocity="100" VelocityDeviation="0" OffVelocity="64" Probability="1" IsEnabled="true" NoteId="28" />
														<MidiNoteEvent Time="28" Duration="0.25" Velocity="100" VelocityDeviation="0" OffVelocity="64" Probability="1" IsEnabled="true" NoteId="29" />
														<MidiNoteEvent Time="28.5" Duration="0.25" Velocity="100" VelocityDeviation="0" OffVelocity="64" Probability="1" IsEnabled="true" NoteId="30" />
														<MidiNoteEvent Time="29.75" Duration="0.25" Velocity="100" VelocityDeviation="0" OffVelocity="64" Probability="1" IsEnabled="true" NoteId="31" />
														<MidiNoteEvent Time="30.5" Duration="0.25" Velocity="100" VelocityDeviation="0" OffVelocity="64" Probability="1" IsEnabled="true" NoteId="32" />
</Notes>