<Notes>
    <MidiNoteEvent Time="0" Duration="0.25" Velocity="100" VelocityDeviation="0" OffVelocity="64" Probability="1" IsEnabled="true" NoteId="1" />
    <MidiNoteEvent Time="0.5" Duration="0.25" Velocity="100" VelocityDeviation="0" OffVelocity="64" Probability="1" IsEnabled="true" NoteId="2" />
    <MidiNoteEvent Time="1" Duration="0.25" Velocity="100" VelocityDeviation="0" OffVelocity="64" Probability="1" IsEnabled="true" NoteId="3" />
    <MidiNoteEvent Time="1.5" Duration="0.25" Velocity="100" VelocityDeviation="0" OffVelocity="64" Probability="1" IsEnabled="true" NoteId="4" />
    <MidiNoteEvent Time="2" Duration="0.25" Velocity="100" VelocityDeviation="0" OffVelocity="64" Probability="1" IsEnabled="true" NoteId="5" />
    <MidiNoteEvent Time="2.5" Duration="0.25" Velocity="100" VelocityDeviation="0" OffVelocity="64" Probability="1" IsEnabled="true" NoteId="6" />
    <MidiNoteEvent Time="3" Duration="0.25" Velocity="100" VelocityDeviation="0" OffVelocity="64" Probability="1" IsEnabled="true" NoteId="7" />
    <MidiNoteEvent Time="3.5" Duration="0.25" Velocity="100" VelocityDeviation="0" OffVelocity="64" Probability="1" IsEnabled="true" NoteId="8" />
    <MidiNoteEvent Time="4" Duration="0.25" Velocity="100" VelocityDeviation="0" OffVelocity="64" Probability="1" IsEnabled="true" NoteId="9" />
    <MidiNoteEvent Time="4.5" Duration="0.25" Velocity="100" VelocityDeviation="0" OffVelocity="64" Probability="1" IsEnabled="true" NoteId="10" />
    <MidiNoteEvent Time="5" Duration="0.25" Velocity="100" VelocityDeviation="0" OffVelocity="64" Probability="1" IsEnabled="true" NoteId="11" />
    <MidiNoteEvent Time="5.5" Duration="0.25" Velocity="100" VelocityDeviation="0" OffVelocity="64" Probability="1" IsEnabled="true" NoteId="12" />
    <MidiNoteEvent Time="6" Duration="0.25" Velocity="100" VelocityDeviation="0" OffVelocity="64" Probability="1" IsEnabled="true" NoteId="13" />
    <MidiNoteEvent Time="6.5" Duration="0.25" Velocity="100" VelocityDeviation="0" OffVelocity="64" Probability="1" IsEnabled="true" NoteId="14" />
    <MidiNoteEvent Time="7" Duration="0.25" Velocity="100" VelocityDeviation="0" OffVelocity="64" Probability="1" IsEnabled="true" NoteId="15" />
    <MidiNoteEvent Time="7.5" Duration="0.25" Velocity="100" VelocityDeviation="0" OffVelocity="64" Probability="1" IsEnabled="true" NoteId="16" />
    <MidiNoteEvent Time="8" Duration="0.25" Velocity="100" VelocityDeviation="0" OffVelocity="64" Probability="1" IsEnabled="true" NoteId="17" />
    <MidiNoteEvent Time="8.5" Duration="0.25" Velocity="100" VelocityDeviation="0" OffVelocity="64" Probability="1" IsEnabled="true" NoteId="18" />
    <MidiNoteEvent Time="9" Duration="0.25" Velocity="100" VelocityDeviation="0" OffVelocity="64" Probability="1" IsEnabled="true" NoteId="19" />
    <MidiNoteEvent Time="9.5" Duration="0.25" Velocity="100" VelocityDeviation="0" OffVelocity="64" Probability="1" IsEnabled="true" NoteId="20" />
    <MidiNoteEvent Time="10" Duration="0.25" Velocity="100" VelocityDeviation="0" OffVelocity="64" Probability="1" IsEnabled="true" NoteId="21" />
    <MidiNoteEvent Time="10.5" Duration="0.25" Velocity="100" VelocityDeviation="0" OffVelocity="64" Probability="1" IsEnabled="true" NoteId="22" />
    <MidiNoteEvent Time="11" Duration="0.25" Velocity="100" VelocityDeviation="0" OffVelocity="64" Probability="1" IsEnabled="true" NoteId="23" />
    <MidiNoteEvent Time="11.5" Duration="0.25" Velocity="100" VelocityDeviation="0" OffVelocity="64" Probability="1" IsEnabled="true" NoteId="24" />
    <MidiNoteEvent Time="12" Duration="0.25" Velocity="100" VelocityDeviation="0" OffVelocity="64" Probability="1" IsEnabled="true" NoteId="25" />
    <MidiNoteEvent Time="12.5" Duration="0.25" Velocity="100" VelocityDeviation="0" OffVelocity="64" Probability="1" IsEnabled="true" NoteId="26" />
    <MidiNoteEvent Time="13" Duration="0.25" Velocity="100" VelocityDeviation="0" OffVelocity="64" Probability="1" IsEnabled="true" NoteId="27" />
    <MidiNoteEvent Time="13.5" Duration="0.25" Velocity="100" VelocityDeviation="0" OffVelocity="64" Probability="1" IsEnabled="true" NoteId="28" />
    <MidiNoteEvent Time="14" Duration="0.25" Velocity="100" VelocityDeviation="0" OffVelocity="64" Probability="1" IsEnabled="true" NoteId="29" />
    <MidiNoteEvent Time="14.5" Duration="0.25" Velocity="100" VelocityDeviation="0" OffVelocity="64" Probability="1" IsEnabled="true" NoteId="30" />
    <MidiNoteEvent Time="15" Duration="0.25" Velocity="100" VelocityDeviation="0" OffVelocity="64" Probability="1" IsEnabled="true" NoteId="31" />
    <MidiNoteEvent Time="15.5" Duration="0.25" Velocity="100" VelocityDeviation="0" OffVelocity="64" Probability="1" IsEnabled="true" NoteId="32" />
    <MidiNoteEvent Time="16" Duration="0.25" Velocity="100" VelocityDeviation="0" OffVelocity="64" Probability="1" IsEnabled="true" NoteId="33" />
    <MidiNoteEvent Time="16.5" Duration="0.25" Velocity="100" VelocityDeviation="0" OffVelocity="64" Probability="1" IsEnabled="true" NoteId="34" />
    <MidiNoteEvent Time="17" Duration="0.25" Velocity="100" VelocityDeviation="0" OffVelocity="64" Probability="1" IsEnabled="true" NoteId="35" />
    <MidiNoteEvent Time="17.5" Duration="0.25" Velocity="100" VelocityDeviation="0" OffVelocity="64" Probability="1" IsEnabled="true" NoteId="36" />
    <MidiNoteEvent Time="18" Duration="0.25" Velocity="100" VelocityDeviation="0" OffVelocity="64" Probability="1" IsEnabled="true" NoteId="37" />
    <MidiNoteEvent Time="18.5" Duration="0.25" Velocity="100" VelocityDeviation="0" OffVelocity="64" Probability="1" IsEnabled="true" NoteId="38" />
    <MidiNoteEvent Time="19" Duration="0.25" Velocity="100" VelocityDeviation="0" OffVelocity="64" Probability="1" IsEnabled="true" NoteId="39" />
    <MidiNoteEvent Time="19.5" Duration="0.25" Velocity="100" VelocityDeviation="0" OffVelocity="64" Probability="1" IsEnabled="true" NoteId="40" />
    <MidiNoteEvent Time="20" Duration="0.25" Velocity="100" VelocityDeviation="0" OffVelocity="64" Probability="1" IsEnabled="true" NoteId="41" />
    <MidiNoteEvent Time="20.5" Duration="0.25" Velocity="100" VelocityDeviation="0" OffVelocity="64" Probability="1" IsEnabled="true" NoteId="42" />
    <MidiNoteEvent Time="21" Duration="0.25" Velocity="100" VelocityDeviation="0" OffVelocity="64" Probability="1" IsEnabled="true" NoteId="43" />
    <MidiNoteEvent Time="21.5" Duration="0.25" Velocity="100" VelocityDeviation="0" OffVelocity="64" Probability="1" IsEnabled="true" NoteId="44" />
    <MidiNoteEvent Time="22" Duration="0.25" Velocity="100" VelocityDeviation="0" OffVelocity="64" Probability="1" IsEnabled="true" NoteId="45" />
    <MidiNoteEvent Time="22.5" Duration="0.25" Velocity="100" VelocityDeviation="0" OffVelocity="64" Probability="1" IsEnabled="true" NoteId="46" />
    <MidiNoteEvent Time="23" Duration="0.25" Velocity="100" VelocityDeviation="0" OffVelocity="64" Probability="1" IsEnabled="true" NoteId="47" />
    <MidiNoteEvent Time="23.5" Duration="0.25" Velocity="100" VelocityDeviation="0" OffVelocity="64" Probability="1" IsEnabled="true" NoteId="48" />
    <MidiNoteEvent Time="24" Duration="0.25" Velocity="100" VelocityDeviation="0" OffVelocity="64" Probability="1" IsEnabled="true" NoteId="49" />
    <MidiNoteEvent Time="24.5" Duration="0.25" Velocity="100" VelocityDeviation="0" OffVelocity="64" Probability="1" IsEnabled="true" NoteId="50" />
    <MidiNoteEvent Time="25" Duration="0.25" Velocity="100" VelocityDeviation="0" OffVelocity="64" Probability="1" IsEnabled="true" NoteId="51" />
    <MidiNoteEvent Time="25.5" Duration="0.25" Velocity="100" VelocityDeviation="0" OffVelocity="64" Probability="1" IsEnabled="true" NoteId="52" />
    <MidiNoteEvent Time="26" Duration="0.25" Velocity="100" VelocityDeviation="0" OffVelocity="64" Probability="1" IsEnabled="true" NoteId="53" />
    <MidiNoteEvent Time="26.5" Duration="0.25" Velocity="100" VelocityDeviation="0" OffVelocity="64" Probability="1" IsEnabled="true" NoteId="54" />
    <MidiNoteEvent Time="27" Duration="0.25" Velocity="100" VelocityDeviation="0" OffVelocity="64" Probability="1" IsEnabled="true" NoteId="55" />
    <MidiNoteEvent Time="27.5" Duration="0.25" Velocity="100" VelocityDeviation="0" OffVelocity="64" Probability="1" IsEnabled="true" NoteId="56" />
    <MidiNoteEvent Time="28" Duration="0.25" Velocity="100" VelocityDeviation="0" OffVelocity="64" Probability="1" IsEnabled="true" NoteId="57" />
    <MidiNoteEvent Time="28.5" Duration="0.25" Velocity="100" VelocityDeviation="0" OffVelocity="64" Probability="1" IsEnabled="true" NoteId="58" />
    <MidiNoteEvent Time="29" Duration="0.25" Velocity="100" VelocityDeviation="0" OffVelocity="64" Probability="1" IsEnabled="true" NoteId="59" />
    <MidiNoteEvent Time="29.5" Duration="0.25" Velocity="100" VelocityDeviation="0" OffVelocity="64" Probability="1" IsEnabled="true" NoteId="60" />
    <MidiNoteEvent Time="30" Duration="0.25" Velocity="100" VelocityDeviation="0" OffVelocity="64" Probability="1" IsEnabled="true" NoteId="61" />
    <MidiNoteEvent Time="30.5" Duration="0.25" Velocity="100" VelocityDeviation="0" OffVelocity="64" Probability="1" IsEnabled="true" NoteId="62" />
    <MidiNoteEvent Time="31" Duration="0.25" Velocity="100" VelocityDeviation="0" OffVelocity="64" Probability="1" IsEnabled="true" NoteId="63" />
    <MidiNoteEvent Time="31.5" Duration="0.25" Velocity="100" VelocityDeviation="0" OffVelocity="64" Probability="1" IsEnabled="true" NoteId="64" />
</Notes>